<svg xmlns="http://www.w3.org/2000/svg" version="1.0" preserveAspectRatio="xMidYMid meet" viewBox="1.2 0.44 71.35 50.87">

<g transform="translate(0.000000,52.000000) scale(0.100000,-0.100000)" fill="#000000" stroke="none">
<path d="M643 508 c-6 -7 -20 -31 -31 -53 -11 -22 -35 -49 -52 -60 -17 -11 -36 -30 -41 -43 -7 -17 -14 -22 -29 -17 -12 4 -26 0 -36 -9 -22 -22 -37 -20 -29 4 8 26 -23 40 -37 17 -11 -20 -62 -48 -80 -45 -7 2 -14 -7 -16 -19 -3 -23 -16 -30 -26 -14 -3 4 -32 11 -65 15 -50 6 -59 10 -54 23 4 11 8 13 11 5 7 -21 22 -13 22 11 0 46 -16 51 -40 12 -12 -20 -33 -40 -46 -45 -31 -12 -54 -70 -47 -116 5 -29 2 -40 -14 -53 l-21 -16 20 -45 c19 -42 21 -43 29 -23 4 13 13 23 19 23 5 0 10 11 10 25 0 19 5 25 23 25 12 0 28 -9 35 -20 13 -21 42 -28 42 -10 0 20 56 10 83 -15 15 -14 27 -29 27 -34 0 -4 10 -12 23 -18 26 -12 87 -5 87 9 0 6 14 8 37 3 47 -8 103 19 103 51 0 28 19 35 47 16 13 -8 29 -12 37 -9 9 4 16 -4 20 -24 10 -52 29 -34 23 21 -8 63 -22 90 -49 90 -19 0 -20 4 -14 41 4 23 13 54 21 70 8 15 15 39 15 54 0 39 17 30 25 -13 3 -22 14 -43 27 -51 28 -18 31 -10 9 31 -10 20 -21 62 -24 94 -4 38 -11 61 -22 67 -13 7 -14 12 -4 23 8 10 9 18 2 25 -7 7 -13 6 -20 -3z"/>
<path d="M260 342 c-13 -10 -21 -23 -19 -29 2 -6 17 2 32 18 31 32 22 39 -13 11z"/>
<path d="M675 157 c10 -15 20 -25 23 -22 3 3 -5 16 -17 28 l-23 22 17 -28z"/>
</g>
</svg>